<svg width="185" height="198" viewBox="0 0 185 198" fill="none" xmlns="http://www.w3.org/2000/svg">
<circle cx="92.5001" cy="105.5" r="76.5" transform="rotate(80.2008 92.5001 105.5)" stroke="url(#paint0_linear_76_18)" stroke-width="6"/>
<circle cx="92.7134" cy="16.7133" r="10.5" transform="rotate(125.011 92.7134 16.7133)" stroke="url(#paint1_radial_76_18)" stroke-width="3"/>
<path d="M99.5388 35.9125V36.3078C99.1172 36.3473 98.7944 36.4461 98.5704 36.6042C98.3464 36.7492 98.1948 36.9864 98.1158 37.3158C98.0499 37.632 98.0169 38.0866 98.0169 38.6795V49.9652C97.8984 49.952 97.7666 49.9454 97.6216 49.9454C97.4899 49.9454 97.3449 49.952 97.1868 49.9652L88.7078 38.4424V46.9807C88.7078 47.6132 88.7473 48.1073 88.8264 48.4631C88.9054 48.8056 89.0767 49.056 89.3402 49.2141C89.6169 49.3591 90.032 49.4579 90.5854 49.5106V49.9059C90.3351 49.8795 90.0122 49.8664 89.6169 49.8664C89.2216 49.8532 88.8461 49.8466 88.4904 49.8466C88.1741 49.8466 87.8513 49.8532 87.5219 49.8664C87.2056 49.8664 86.9421 49.8795 86.7313 49.9059V49.5106C87.1661 49.4579 87.4889 49.3591 87.6998 49.2141C87.9238 49.0692 88.0687 48.832 88.1346 48.5026C88.2136 48.1732 88.2532 47.7186 88.2532 47.1388V38.0075C88.2532 37.52 88.2136 37.1642 88.1346 36.9402C88.0687 36.7031 87.9238 36.5449 87.6998 36.4659C87.4889 36.3736 87.1661 36.3209 86.7313 36.3078V35.9125C86.9421 35.9256 87.2056 35.9388 87.5219 35.952C87.8513 35.9652 88.1741 35.9718 88.4904 35.9718C88.7934 35.9718 89.0899 35.9652 89.3798 35.952C89.6696 35.9388 89.9266 35.9256 90.1506 35.9125L97.5624 45.7751V38.8376C97.5624 38.192 97.5228 37.6979 97.4438 37.3553C97.3647 37.0127 97.1934 36.7624 96.9299 36.6042C96.6664 36.4461 96.2513 36.3473 95.6847 36.3078V35.9125C95.9351 35.9256 96.2579 35.9388 96.6532 35.952C97.0616 35.9652 97.4372 35.9718 97.7798 35.9718C98.1092 35.9718 98.432 35.9652 98.7482 35.952C99.0776 35.9388 99.3412 35.9256 99.5388 35.9125Z" fill="black"/>
<path d="M91.4155 160.499C92.1534 160.499 92.72 160.578 93.1153 160.736C93.5106 160.894 93.8532 161.065 94.1431 161.25C94.3012 161.342 94.4264 161.415 94.5186 161.467C94.624 161.507 94.7228 161.527 94.8151 161.527C94.9468 161.527 95.0391 161.454 95.0918 161.309C95.1576 161.164 95.2104 160.947 95.2499 160.657H95.7045C95.6913 160.907 95.6715 161.197 95.6452 161.527C95.632 161.856 95.6188 162.297 95.6056 162.851C95.6056 163.391 95.6056 164.109 95.6056 165.005H95.1511C95.1115 164.333 94.96 163.687 94.6965 163.068C94.4461 162.449 94.0838 161.942 93.6094 161.546C93.1482 161.138 92.5553 160.934 91.8306 160.934C91.1849 160.934 90.6447 161.125 90.2099 161.507C89.7882 161.889 89.5774 162.403 89.5774 163.048C89.5774 163.602 89.7158 164.07 89.9925 164.452C90.2692 164.821 90.6579 165.183 91.1586 165.539C91.6725 165.881 92.2786 166.277 92.9769 166.725C93.6226 167.146 94.2024 167.568 94.7162 167.99C95.2301 168.398 95.632 168.853 95.9219 169.353C96.2249 169.854 96.3765 170.467 96.3765 171.191C96.3765 172.048 96.1656 172.759 95.744 173.326C95.3224 173.893 94.7558 174.314 94.0442 174.591C93.3327 174.868 92.5553 175.006 91.712 175.006C90.9346 175.006 90.3153 174.927 89.8541 174.769C89.4061 174.611 89.0174 174.446 88.688 174.275C88.3981 174.09 88.1741 173.998 88.016 173.998C87.8842 173.998 87.7854 174.071 87.7195 174.215C87.6668 174.36 87.6207 174.578 87.5812 174.868H87.1266C87.1529 174.565 87.1661 174.209 87.1661 173.8C87.1793 173.392 87.1859 172.865 87.1859 172.219C87.1991 171.56 87.2056 170.73 87.2056 169.729H87.6602C87.7129 170.572 87.8579 171.363 88.0951 172.101C88.3454 172.825 88.7209 173.412 89.2216 173.86C89.7355 174.308 90.4141 174.532 91.2574 174.532C91.7186 174.532 92.1336 174.453 92.5026 174.295C92.8847 174.123 93.1878 173.866 93.4118 173.524C93.6358 173.168 93.7478 172.72 93.7478 172.18C93.7478 171.639 93.6226 171.165 93.3722 170.757C93.1219 170.348 92.7727 169.966 92.3247 169.61C91.8767 169.255 91.3496 168.892 90.7435 168.523C90.1242 168.128 89.5445 167.726 89.0042 167.318C88.464 166.909 88.0292 166.448 87.6998 165.934C87.3835 165.407 87.2254 164.775 87.2254 164.037C87.2254 163.22 87.4231 162.554 87.8184 162.04C88.2136 161.513 88.7275 161.125 89.36 160.874C90.0056 160.624 90.6908 160.499 91.4155 160.499Z" fill="black"/>
<path d="M34.7109 94.4341C34.6598 94.9579 34.6215 95.4688 34.5959 95.967C34.5832 96.4524 34.5768 96.8228 34.5768 97.0783C34.5768 97.321 34.5832 97.5573 34.5959 97.7873C34.6087 98.0044 34.6215 98.1896 34.6343 98.3429H34.1936C34.0914 97.4615 33.9253 96.7717 33.6954 96.2736C33.4655 95.7626 33.1525 95.4049 32.7565 95.2006C32.3733 94.9834 31.8687 94.8748 31.2428 94.8748H30.189C29.8057 94.8748 29.5119 94.9068 29.3076 94.9706C29.1032 95.0345 28.9627 95.1686 28.886 95.373C28.8221 95.5774 28.7902 95.8903 28.7902 96.3119V106.122C28.7902 106.531 28.8221 106.844 28.886 107.061C28.9627 107.266 29.1032 107.4 29.3076 107.463C29.5119 107.527 29.8057 107.559 30.189 107.559H31.2811C31.9326 107.559 32.4755 107.438 32.9098 107.195C33.3569 106.953 33.7145 106.557 33.9828 106.007C34.251 105.445 34.449 104.679 34.5768 103.708H35.0175C34.9792 104.104 34.96 104.615 34.96 105.241C34.96 105.509 34.9664 105.899 34.9792 106.41C35.0047 106.921 35.043 107.451 35.0941 108C34.4427 107.974 33.7082 107.962 32.8906 107.962C32.0731 107.949 31.345 107.943 30.7063 107.943C30.4125 107.943 30.0229 107.943 29.5375 107.943C29.0648 107.943 28.5475 107.949 27.9855 107.962C27.4362 107.962 26.8741 107.968 26.2993 107.981C25.7372 107.981 25.2007 107.987 24.6898 108V107.617C25.1113 107.591 25.4243 107.54 25.6287 107.463C25.8458 107.387 25.9863 107.234 26.0502 107.004C26.1269 106.774 26.1652 106.429 26.1652 105.969V96.4652C26.1652 95.9925 26.1269 95.6476 26.0502 95.4305C25.9863 95.2006 25.8458 95.0473 25.6287 94.9706C25.4243 94.8812 25.1113 94.8301 24.6898 94.8173V94.4341C25.2007 94.4469 25.7372 94.4597 26.2993 94.4724C26.8741 94.4724 27.4362 94.4788 27.9855 94.4916C28.5475 94.4916 29.0648 94.4916 29.5375 94.4916C30.0229 94.4916 30.4125 94.4916 30.7063 94.4916C31.2939 94.4916 31.9581 94.4916 32.699 94.4916C33.4527 94.4788 34.1233 94.4597 34.7109 94.4341ZM31.626 100.987C31.626 100.987 31.626 101.051 31.626 101.179C31.626 101.306 31.626 101.37 31.626 101.37H28.2154C28.2154 101.37 28.2154 101.306 28.2154 101.179C28.2154 101.051 28.2154 100.987 28.2154 100.987H31.626ZM32.1817 98.4579C32.1306 99.186 32.105 99.7417 32.105 100.125C32.1178 100.508 32.1242 100.859 32.1242 101.179C32.1242 101.498 32.1306 101.849 32.1434 102.233C32.1561 102.616 32.1881 103.171 32.2392 103.9H31.7985C31.7346 103.465 31.6324 103.057 31.4919 102.673C31.3641 102.277 31.1534 101.964 30.8596 101.734C30.5786 101.492 30.1698 101.37 29.6333 101.37V100.987C30.0293 100.987 30.3486 100.904 30.5913 100.738C30.8468 100.572 31.0512 100.361 31.2045 100.106C31.3578 99.8375 31.4727 99.5628 31.5494 99.2818C31.6388 98.988 31.7027 98.7134 31.741 98.4579H32.1817Z" fill="black"/>
<path d="M160.222 94.4341V94.8173C159.966 94.9068 159.685 95.1048 159.379 95.4113C159.072 95.7179 158.817 96.2097 158.612 96.8867L155.144 108.057C155.068 108.057 154.985 108.051 154.895 108.038C154.819 108.038 154.736 108.038 154.646 108.038C154.57 108.038 154.486 108.038 154.397 108.038C154.32 108.051 154.244 108.057 154.167 108.057L150.105 95.9095C149.965 95.4752 149.798 95.1878 149.607 95.0473C149.428 94.9068 149.243 94.8301 149.051 94.8173V94.4341C149.358 94.4469 149.728 94.4597 150.163 94.4724C150.61 94.4852 151.05 94.4916 151.485 94.4916C152.021 94.4916 152.526 94.4852 152.998 94.4724C153.471 94.4597 153.854 94.4469 154.148 94.4341V94.8173C153.752 94.8301 153.445 94.8748 153.228 94.9515C153.011 95.0153 152.883 95.1622 152.845 95.3922C152.819 95.6093 152.883 95.9542 153.037 96.4269L155.796 104.915L155.413 105.528L157.712 98.2663C157.993 97.3977 158.121 96.7143 158.095 96.2161C158.082 95.7179 157.935 95.3666 157.654 95.1622C157.373 94.9451 156.971 94.8301 156.447 94.8173V94.4341C156.869 94.4469 157.265 94.4597 157.635 94.4724C158.018 94.4852 158.402 94.4916 158.785 94.4916C159.079 94.4916 159.341 94.4852 159.57 94.4724C159.813 94.4597 160.03 94.4469 160.222 94.4341ZM146.656 94.4341V94.8173C146.362 94.8429 146.158 94.9259 146.043 95.0664C145.928 95.2069 145.877 95.3922 145.89 95.6221C145.915 95.8393 145.979 96.1075 146.081 96.4269L149.013 105.126L148.515 105.739L151.044 98.113L151.331 98.6112L148.246 108.057C148.17 108.057 148.087 108.051 147.997 108.038C147.921 108.038 147.838 108.038 147.748 108.038C147.672 108.038 147.589 108.038 147.499 108.038C147.423 108.051 147.346 108.057 147.269 108.057L143.054 96.0436C142.888 95.571 142.683 95.2517 142.441 95.0856C142.211 94.9195 142 94.8301 141.808 94.8173V94.4341C142.141 94.4469 142.543 94.4597 143.016 94.4724C143.488 94.4852 143.948 94.4916 144.395 94.4916C144.868 94.4916 145.302 94.4852 145.698 94.4724C146.094 94.4597 146.413 94.4469 146.656 94.4341Z" fill="black"/>
<defs>
<linearGradient id="paint0_linear_76_18" x1="174.5" y1="61" x2="33.0001" y2="176" gradientUnits="userSpaceOnUse">
<stop stop-color="#A82929" stop-opacity="0.75"/>
<stop offset="0.304957" stop-color="#A82929" stop-opacity="0.75"/>
<stop offset="0.393989" stop-opacity="0.75"/>
<stop offset="0.577393" stop-opacity="0.75"/>
<stop offset="0.745" stop-color="#2661A0" stop-opacity="0.75"/>
<stop offset="1" stop-color="#2661A0" stop-opacity="0.75"/>
</linearGradient>
<radialGradient id="paint1_radial_76_18" cx="0" cy="0" r="1" gradientUnits="userSpaceOnUse" gradientTransform="translate(91.5813 17.9209) rotate(55.5915) scale(13.3557)">
<stop/>
<stop offset="0.265"/>
<stop offset="0.5" stop-color="#A82929"/>
<stop offset="0.745" stop-color="#A82929"/>
<stop offset="1" stop-color="#2661A0"/>
</radialGradient>
</defs>
</svg>
